<svg xmlns="http://www.w3.org/2000/svg" id="Layer_1" viewBox="0 0 434.27 203"><defs><style>.cls-1{fill:#f6f9fc;stroke-width:0}</style></defs><g id="Layer_2"><path d="M309.62 77.12 298.05 88.7l40.82 40.62 30.66-30.87-10.77-10.76-19.29 19.28-29.85-29.85zm-208.26-8.49c-5.22 0-10.77 2.93-15.53 7.68a13070.6 13070.6 0 0 0-20.51 20.31c13.68 13.67 27.35 27.34 41.03 41.02l20.51-20.51c9.75-9.75 10.56-21.12 4.27-27.41-3.29-3.28-6.64-4.58-10.06-4.58-2.04 0-4.1.46-6.18 1.24 1-4.7.19-9.46-3.87-13.52-2.85-2.92-6.18-4.23-9.66-4.23m-8.43 33.94c-2.76-2.78-5.53-5.55-8.29-8.33 2.63-2.59 5.26-5.18 7.89-7.78 1.93-1.93 3.8-2.85 5.5-2.85 1.33 0 2.56.56 3.63 1.63 2.64 2.64 2.03 6.1-1.02 9.34-2.56 2.67-5.14 5.34-7.71 7.99m15.49 15.6c-2.78-2.8-5.56-5.59-8.33-8.39l9.71-9.71c1.71-1.71 3.42-2.52 5.04-2.52 1.46 0 2.85.66 4.1 1.91 2.64 2.44 2.03 6.3-.61 8.94-3.31 3.25-6.61 6.51-9.91 9.77" class="cls-1"/><path d="M101.87.16.54 101.49l101.33 101.34 69.46-69.25-11.79-11.78-57.67 57.47-77.77-77.78 77.77-77.77 57.67 57.47 11.79-11.78L101.87.16zM216 63.72l-35.73 35.74 10.96 10.76 12.08-12.08 30.16 30.16 11.37-11.37-30.16-30.16 12.09-12.08L216 63.72z" class="cls-1"/><path d="m217.22.16-45.89 45.9 11.78 11.77 34.11-34.11 57.68 57.67 11.78-11.78L217.22.16zm0 179.11-34.11-33.91-11.78 11.78 45.89 45.69 69.46-69.25-11.78-11.78-57.68 57.47zM332.77.16l-45.9 45.69 11.79 11.78 34.11-33.91 77.78 77.77-77.78 77.78-34.11-34.11-11.79 11.77 45.9 45.9L434.1 101.49 332.77.16z" class="cls-1"/><path d="M309.62 77.12 298.05 88.7l40.82 40.62 30.66-30.87-10.77-10.76-19.29 19.28-29.85-29.85zm-208.26-8.49c-5.22 0-10.77 2.93-15.53 7.68a13070.6 13070.6 0 0 0-20.51 20.31c13.68 13.67 27.35 27.34 41.03 41.02l20.51-20.51c9.75-9.75 10.56-21.12 4.27-27.41-3.29-3.28-6.64-4.58-10.06-4.58-2.04 0-4.1.46-6.18 1.24 1-4.7.19-9.46-3.87-13.52-2.85-2.92-6.18-4.23-9.66-4.23m-8.43 33.94c-2.76-2.78-5.53-5.55-8.29-8.33 2.63-2.59 5.26-5.18 7.89-7.78 1.93-1.93 3.8-2.85 5.5-2.85 1.33 0 2.56.56 3.63 1.63 2.64 2.64 2.03 6.1-1.02 9.34-2.56 2.67-5.14 5.34-7.71 7.99m15.49 15.6c-2.78-2.8-5.56-5.59-8.33-8.39l9.71-9.71c1.71-1.71 3.42-2.52 5.04-2.52 1.46 0 2.85.66 4.1 1.91 2.64 2.44 2.03 6.3-.61 8.94-3.31 3.25-6.61 6.51-9.91 9.77" class="cls-1"/><path d="M101.87.16.54 101.49l101.33 101.34 69.46-69.25-11.79-11.78-57.67 57.47-77.77-77.78 77.77-77.77 57.67 57.47 11.79-11.78L101.87.16zM216 63.72l-35.73 35.74 10.96 10.76 12.08-12.08 30.16 30.16 11.37-11.37-30.16-30.16 12.09-12.08L216 63.72z" class="cls-1"/><path d="m217.22.16-45.89 45.9 11.78 11.77 34.11-34.11 57.68 57.67 11.78-11.78L217.22.16zm0 179.11-34.11-33.91-11.78 11.78 45.89 45.69 69.46-69.25-11.78-11.78-57.68 57.47zM332.77.16l-45.9 45.69 11.79 11.78 34.11-33.91 77.78 77.77-77.78 77.78-34.11-34.11-11.79 11.77 45.9 45.9L434.1 101.49 332.77.16z" class="cls-1"/><path d="M309.62 77.12 298.05 88.7l40.82 40.62 30.66-30.87-10.77-10.76-19.29 19.28-29.85-29.85zm-208.26-8.49c-5.22 0-10.77 2.93-15.53 7.68a13070.6 13070.6 0 0 0-20.51 20.31c13.68 13.67 27.35 27.34 41.03 41.02l20.51-20.51c9.75-9.75 10.56-21.12 4.27-27.41-3.29-3.28-6.64-4.58-10.06-4.58-2.04 0-4.1.46-6.18 1.24 1-4.7.19-9.46-3.87-13.52-2.85-2.92-6.18-4.23-9.66-4.23m-8.43 33.94c-2.76-2.78-5.53-5.55-8.29-8.33 2.63-2.59 5.26-5.18 7.89-7.78 1.93-1.93 3.8-2.85 5.5-2.85 1.33 0 2.56.56 3.63 1.63 2.64 2.64 2.03 6.1-1.02 9.34-2.56 2.67-5.14 5.34-7.71 7.99m15.49 15.6c-2.78-2.8-5.56-5.59-8.33-8.39l9.71-9.71c1.71-1.71 3.42-2.52 5.04-2.52 1.46 0 2.85.66 4.1 1.91 2.64 2.44 2.03 6.3-.61 8.94-3.31 3.25-6.61 6.51-9.91 9.77" class="cls-1"/><path d="M101.87.16.54 101.49l101.33 101.34 69.46-69.25-11.79-11.78-57.67 57.47-77.77-77.78 77.77-77.77 57.67 57.47 11.79-11.78L101.87.16zM216 63.72l-35.73 35.74 10.96 10.76 12.08-12.08 30.16 30.16 11.37-11.37-30.16-30.16 12.09-12.08L216 63.72z" class="cls-1"/><path d="m217.22.16-45.89 45.9 11.78 11.77 34.11-34.11 57.68 57.67 11.78-11.78L217.22.16zm0 179.11-34.11-33.91-11.78 11.78 45.89 45.69 69.46-69.25-11.78-11.78-57.68 57.47zM332.77.16l-45.9 45.69 11.79 11.78 34.11-33.91 77.78 77.77-77.78 77.78-34.11-34.11-11.79 11.77 45.9 45.9L434.1 101.49 332.77.16z" class="cls-1"/></g></svg>