<svg xmlns="http://www.w3.org/2000/svg" width="32" height="32" fill="none"><path fill="#4D88F7" d="M13.342 2.805A4 4 0 0 0 8.55 4.791L7.474 6.894c-.127.25-.33.453-.58.58L4.79 8.55a4 4 0 0 0-1.986 4.794l.727 2.246c.087.267.087.555 0 .822l-.727 2.246a4 4 0 0 0 1.986 4.794l2.102 1.075c.25.127.454.33.581.58L8.55 27.21a4 4 0 0 0 4.793 1.986l2.247-.727c.267-.087.555-.087.821 0l2.247.727a4 4 0 0 0 4.794-1.986l1.074-2.103a1.33 1.33 0 0 1 .581-.58l2.103-1.075a4 4 0 0 0 1.986-4.794l-.727-2.246a1.334 1.334 0 0 1 0-.822l.727-2.246A4 4 0 0 0 27.21 8.55l-2.103-1.075a1.335 1.335 0 0 1-.58-.58L23.45 4.79a4 4 0 0 0-4.794-1.986l-2.247.727a1.333 1.333 0 0 1-.82 0l-2.248-.727zm-4.33 12.871 1.886-1.885 3.772 3.771 7.542-7.543 1.886 1.886-9.428 9.428-5.657-5.657z"/></svg>