<svg xmlns="http://www.w3.org/2000/svg" xml:space="preserve" id="Layer_1" x="0" y="0" style="enable-background:new 0 0 1920 1080" version="1.1" viewBox="0 0 1920 1080"><style>.st0{fill-rule:evenodd;clip-rule:evenodd;fill:#fff}</style><g id="logo-logo"><path d="M412.87 726.79c4.166-6.413 7.102-13.069 8.882-19.866 1.78 6.797 4.719 13.453 8.883 19.865 71.345 69.507 203.35-29.774 305.213-161.444-190.558-12.404-298.356 48.34-314.096 110.289-15.733-61.947-123.542-122.69-314.093-110.287 101.867 131.668 233.862 230.949 305.212 161.442" class="st0"/><path d="M498.124 501.918c30.548-27.412 75.32-58.553 121.59-72.345-2.593 41.136-13.062 90.486-26.89 125.776-30.29 4.562-59.874 11.819-87.365 22.618v-1.165a385.004 385.004 0 0 0-7.335-74.884m-152.734.005c-30.547-27.417-75.325-58.558-121.6-72.35 2.598 41.136 13.066 90.476 26.895 125.766 30.289 4.562 59.882 11.829 87.365 22.627V576.8c0-25.327 2.477-50.396 7.34-74.878m76.365-137.166c-43.042 59.688-68.394 132.991-68.394 212.205 0 3.194.046 6.386.13 9.552 25.369 12.184 50.961 29.335 68.266 51.77 17.306-22.435 42.889-39.586 68.272-51.77.082-3.174.12-6.356.12-9.552-.001-79.214-25.356-152.517-68.394-212.205" class="st0"/></g><g id="text-logo" transform="translate(760.964 424.973) scale(1.92115)"><path id="text-logo-path-0" d="M31.21 121.08h60.02v-18.27H52.09V33.65H31.21v87.43zm144.58 1.43c16.7 0 31.45-8.87 39.41-22.7 4.05-6.92 6-14.35 6-22.44 0-16.18-8.61-30.79-22.57-39.01-6.92-4.05-14.61-6.13-22.83-6.13-16.7 0-31.45 8.74-39.41 22.57-4.05 6.92-6 14.48-6 22.57 0 16.18 8.61 30.79 22.57 39.01 6.91 4.04 14.6 6.13 22.83 6.13zm-23.88-45.15c0-13.44 10.7-24.14 23.88-24.14 13.31 0 23.88 10.7 23.88 24.14s-10.7 24.14-23.88 24.14c-13.31 0-23.88-10.7-23.88-24.14zm146.27 43.72V51.79h23.49V33.52h-67.85v18.27h23.49v69.29h20.87zm83.51-38.1V33.65h-20.88v49.32c0 14.48 7.57 27.01 19.57 34.06 6 3.52 12.53 5.35 19.7 5.35 14.09 0 26.75-7.57 33.8-19.7 3.52-6 5.22-12.53 5.22-19.7V33.65h-20.88v49.32c0 10.83-7.7 19.05-18.14 19.05-10.56.01-18.39-8.21-18.39-19.04zm132.7-50.63c-20.23 0-34.06 10.57-34.06 27.14 0 13.18 7.7 21.53 23.1 24.92l18.01 3.91c5.74 1.17 8.61 3.26 8.61 6.26 0 4.57-4.44 6.92-13.31 6.92-7.18 0-14.48-4.18-16.96-10.83l-21.53 7.57c3.65 15.66 18.53 24.14 37.32 24.14 12.14 0 23.62-3.91 30.4-12.4 3.39-4.18 5.09-9.39 5.09-15.53 0-13.18-7.83-21.53-23.62-25.05l-17.88-4.05c-4.57-1.04-7.7-3.13-7.7-5.87 0-4.57 5.35-6.26 12.27-6.26 8.48 0 13.96 2.09 15.14 9.26l20.09-7.83c-4.3-14.6-17.74-22.3-34.97-22.3z" style="fill:#fff"/></g></svg>